<svg xmlns="http://www.w3.org/2000/svg" xml:space="preserve" id="Layer_1" x="0" y="0" viewBox="0 0 512 512"><style>.st0{fill-rule:evenodd;clip-rule:evenodd}</style><path d="M78.6 35.5c-9.8 0-17.7 7.9-17.7 17.7v392.5l141.9-94.6 141.9 94.6V266c0-9.8 7.9-17.7 17.7-17.7s17.7 7.9 17.7 17.7v246L202.8 393.8 25.4 512V53.2C25.4 23.8 49.3 0 78.6 0h141.9c9.8 0 17.7 7.9 17.7 17.7s-7.9 17.7-17.7 17.7H78.6zM397.9 0c9.8 0 17.7 7.9 17.7 17.7v70.9c0 9.8-7.9 17.7-17.7 17.7H327c-9.8 0-17.7-7.9-17.7-17.7s7.9-17.7 17.7-17.7h53.2V17.7c0-9.8 7.9-17.7 17.7-17.7" class="st0"/><path d="M380.2 88.7c0-9.8 7.9-17.7 17.7-17.7h70.9c9.8 0 17.7 7.9 17.7 17.7s-7.9 17.7-17.7 17.7h-53.2v53.2c0 9.8-7.9 17.7-17.7 17.7s-17.7-7.9-17.7-17.7z" class="st0"/></svg>